<svg width="42" height="42" viewBox="0 0 42 42" fill="none" xmlns="http://www.w3.org/2000/svg">
<path d="M20.9301 0.734985C9.7371 0.734985 0.6651 9.80699 0.6651 21C0.6651 32.193 9.7371 41.265 20.9301 41.265C32.1231 41.265 41.1951 32.193 41.1951 21C41.1951 9.80699 32.1231 0.734985 20.9301 0.734985ZM27.7971 24.78H7.4271C7.3641 22.428 9.2121 20.475 11.5641 20.412C12.5511 20.412 13.4751 20.79 14.2101 21.441C15.3231 18.9 17.8431 17.241 20.6361 17.22C24.6891 17.325 27.9021 20.706 27.7971 24.78ZM34.4331 24.78H30.0021C30.0021 24.696 30.0021 24.612 30.0021 24.528C30.0651 23.31 31.1151 22.365 32.3331 22.449C33.5721 22.512 34.4961 23.562 34.4331 24.78Z" fill="url(#paint0_linear)"/>
<defs>
<linearGradient id="paint0_linear" x1="1.96382" y1="-0.183135" x2="40.972" y2="43.3845" gradientUnits="userSpaceOnUse">
<stop stop-color="#00C6FC"/>
<stop offset="1" stop-color="#0060F9"/>
</linearGradient>
</defs>
</svg>
